<svg height="512pt" viewBox="0 0 512 512" width="512pt" xmlns="http://www.w3.org/2000/svg"><path d="m368.558594 127.707031-49.824219-94.765625-24.019531 17.058594-38.933594-50-39.453125 50.015625-23.746094-16.980469-49.726562 94.671875c-16.308594 29.421875-24.234375 53.203125-24.234375 72.714844 0 40.984375 14.996094 75.539063 43.371094 99.9375 24.863281 21.375 58.144531 33.144531 93.710937 33.144531 35.570313 0 68.851563-11.769531 93.714844-33.144531 28.375-24.394531 43.371093-58.953125 43.371093-99.9375.003907-19.511719-7.925781-43.296875-24.230468-72.714844zm0 0" fill="#ff7037"/><path d="m368.558594 127.707031-49.824219-94.765625-24.019531 17.058594-38.933594-50-.074219.0976562v333.4062498c35.570313 0 68.851563-11.769531 93.710938-33.144531 28.375-24.394531 43.375-58.953125 43.375-99.9375 0-19.511719-7.929688-43.296875-24.234375-72.714844zm0 0" fill="#ff1f3e"/><path d="m322.445312 177.273438-30.421874-57.871094-13.960938 9.914062-22.28125-28.609375-22.578125 28.625-13.851563-9.902343-30.386718 57.847656c-9.320313 16.832031-13.855469 30.691406-13.855469 42.367187 0 22.027344 8.664063 42.542969 24.390625 57.761719l.511719.496094.5625.449218c17.917969 14.308594 36.472656 21.5625 55.148437 21.5625 18.660156 0 37.191406-7.246093 55.082032-21.53125l.558593-.441406.511719-.496094c15.75-15.234374 24.425781-35.761718 24.425781-57.800781 0-11.675781-4.53125-25.539062-13.855469-42.371093zm0 0" fill="#ffe14e"/><path d="m322.445312 177.273438-30.421874-57.871094-13.960938 9.914062-22.28125-28.609375-.074219.097657v199.109374h.015625c18.660156 0 37.191406-7.246093 55.082032-21.53125l.558593-.441406.511719-.496094c15.75-15.234374 24.425781-35.761718 24.425781-57.800781 0-11.675781-4.53125-25.539062-13.855469-42.371093zm0 0" fill="#ffc000"/><path d="m255.707031 239.839844c-59.851562 0-108.546875 48.691406-108.546875 108.542968 0 59.855469 48.695313 108.546876 108.546875 108.546876 59.851563 0 108.542969-48.691407 108.542969-108.546876 0-59.851562-48.691406-108.542968-108.542969-108.542968zm0 0" fill="#00bd00"/><path d="m301.800781 374.710938-20.273437-22.128907-10.816406 9.90625v-24.109375h-30.011719v24.109375l-10.8125-9.90625-20.277344 22.128907 31.089844 28.484374v108.804688h30.011719v-108.804688zm0 0" fill="#99503d"/><path d="m471.121094 218.09375-67.417969-61.191406-67.421875 61.191406c-25.605469 23.238281-40.289062 56.398438-40.289062 90.972656 0 34.578125 14.683593 67.738282 40.289062 90.976563l67.421875 61.191406 67.417969-61.191406c25.605468-23.238281 40.289062-56.398438 40.289062-90.976563 0-34.574218-14.683594-67.734375-40.289062-90.972656zm0 0" fill="#70da40"/><path d="m460.992188 329.5625-20.277344-22.128906-22.003906 20.164062v-69.257812h-30.015626v69.257812l-22.007812-20.164062-20.273438 22.128906 42.28125 38.742188v143.695312h30.015626v-143.695312zm0 0" fill="#99503d"/><path d="m175.128906 218.09375-67.417968-61.191406-67.421876 61.191406c-25.605468 23.238281-40.289062 56.398438-40.289062 90.972656 0 34.578125 14.683594 67.738282 40.289062 90.976563l67.421876 61.191406 67.417968-61.191406c25.605469-23.242188 40.289063-56.398438 40.289063-90.976563 0-34.574218-14.683594-67.734375-40.289063-90.972656zm0 0" fill="#70da40"/><path d="m165 329.5625-20.277344-22.128906-22.007812 20.164062v-69.257812h-30.011719v69.257812l-22.007813-20.164062-20.273437 22.128906 42.28125 38.742188v143.695312h30.011719v-143.695312zm0 0" fill="#99503d"/><path d="m255.707031 239.839844c-59.851562 0-108.546875 48.691406-108.546875 108.542968 0 59.855469 48.695313 108.546876 108.546875 108.546876 59.851563 0 108.542969-48.691407 108.542969-108.546876 0-59.851562-48.691406-108.542968-108.542969-108.542968zm0 0" fill="#70da40"/><path d="m301.800781 374.710938-20.273437-22.128907-10.816406 9.90625v-24.109375h-30.011719v24.109375l-10.8125-9.90625-20.277344 22.128907 31.089844 28.484374v108.804688h30.011719v-108.804688zm0 0" fill="#b35f49"/><path d="m255.707031 239.839844v217.089844c59.851563 0 108.542969-48.691407 108.542969-108.546876 0-59.851562-48.691406-108.542968-108.542969-108.542968zm0 0" fill="#49a520"/><path d="m281.527344 352.582031-10.816406 9.90625v-24.109375h-15.003907v173.621094h15.003907v-108.804688l31.089843-28.484374zm0 0" fill="#804231"/><path d="m175.128906 218.09375-67.417968-61.191406-67.421876 61.191406c-25.605468 23.238281-40.289062 56.398438-40.289062 90.972656 0 34.578125 14.683594 67.738282 40.289062 90.976563l67.421876 61.191406 67.417968-61.191406c25.605469-23.242188 40.289063-56.398438 40.289063-90.976563 0-34.574218-14.683594-67.734375-40.289063-90.972656zm0 0" fill="#90e36a"/><path d="m165 329.5625-20.277344-22.128906-22.007812 20.164062v-69.257812h-30.011719v69.257812l-22.007813-20.164062-20.273437 22.128906 42.28125 38.742188v143.695312h30.011719v-143.695312zm0 0" fill="#b35f49"/><path d="m471.121094 218.09375-67.417969-61.191406-67.421875 61.191406c-25.605469 23.238281-40.289062 56.398438-40.289062 90.972656 0 34.578125 14.683593 67.738282 40.289062 90.976563l67.421875 61.191406 67.417969-61.191406c25.605468-23.238281 40.289062-56.398438 40.289062-90.976563 0-34.574218-14.683594-67.734375-40.289062-90.972656zm0 0" fill="#70da40"/><path d="m471.121094 218.09375-67.417969-61.191406-67.421875 61.191406c-25.605469 23.238281-40.289062 56.398438-40.289062 90.972656 0 34.578125 14.683593 67.738282 40.289062 90.976563l67.421875 61.191406 67.417969-61.191406c25.605468-23.238281 40.289062-56.398438 40.289062-90.976563 0-34.574218-14.683594-67.734375-40.289062-90.972656zm0 0" fill="#70da40"/><path d="m460.992188 329.5625-20.277344-22.128906-22.003906 20.164062v-69.257812h-30.015626v69.257812l-22.007812-20.164062-20.273438 22.128906 42.28125 38.742188v143.695312h30.015626v-143.695312zm0 0" fill="#b35f49"/><path d="m460.992188 329.5625-20.277344-22.128906-22.003906 20.164062v-69.257812h-30.015626v69.257812l-22.007812-20.164062-20.273438 22.128906 42.28125 38.742188v143.695312h30.015626v-143.695312zm0 0" fill="#804231"/></svg>